<svg width="347" height="137" viewBox="0 0 347 137" fill="none" xmlns="http://www.w3.org/2000/svg">
<path d="M65.84 135V128.984L72.752 127.448C72.8373 124.376 72.88 121.048 72.88 117.464C72.88 113.88 72.88 110.765 72.88 108.12V101.976C72.88 98.4773 72.8373 95.576 72.752 93.272C72.752 90.8827 72.6667 88.408 72.496 85.848L64.56 84.696V79.704L91.44 71.128L93.616 72.536L93.232 91.096V108.12C93.232 110.765 93.232 113.923 93.232 117.592C93.232 121.176 93.2747 124.547 93.36 127.704L99.76 128.984V135H65.84ZM82.864 61.656C79.8773 61.656 77.3173 60.7173 75.184 58.84C73.0507 56.8773 71.984 54.4453 71.984 51.544C71.984 48.5573 73.0507 46.1253 75.184 44.248C77.3173 42.2853 79.8773 41.304 82.864 41.304C85.8507 41.304 88.4107 42.2853 90.544 44.248C92.6773 46.1253 93.744 48.5573 93.744 51.544C93.744 54.4453 92.6773 56.8773 90.544 58.84C88.4107 60.7173 85.8507 61.656 82.864 61.656Z" fill="black"/>
<path d="M155.62 136.792C148.196 136.792 143.503 133.72 141.54 127.576C138.809 130.477 136.164 132.781 133.604 134.488C131.129 136.109 127.673 136.92 123.236 136.92C118.287 136.92 114.233 135.512 111.076 132.696C108.004 129.88 106.468 125.827 106.468 120.536C106.468 117.464 107.151 114.691 108.516 112.216C109.881 109.741 112.356 107.437 115.94 105.304C119.524 103.171 124.601 101.165 131.172 99.288C132.452 98.8613 133.945 98.4347 135.652 98.008C137.359 97.5813 139.108 97.1547 140.9 96.728V92.504C140.9 86.7867 140.175 82.904 138.724 80.856C137.359 78.808 134.628 77.784 130.532 77.784C129.935 77.784 129.38 77.784 128.868 77.784C128.356 77.784 127.759 77.8267 127.076 77.912L126.436 83.544C126.351 87.7253 125.369 90.7547 123.492 92.632C121.7 94.5093 119.567 95.448 117.092 95.448C112.399 95.448 109.54 93.3147 108.516 89.048C108.857 83.7573 111.545 79.448 116.58 76.12C121.615 72.792 128.74 71.128 137.956 71.128C146.148 71.128 151.993 73.0053 155.492 76.76C159.076 80.5147 160.868 86.7013 160.868 95.32V123.992C160.868 126.467 161.807 127.704 163.684 127.704C164.367 127.704 165.007 127.533 165.604 127.192C166.201 126.765 166.841 125.997 167.524 124.888L170.98 127.192C169.444 130.605 167.439 133.08 164.964 134.616C162.575 136.067 159.46 136.792 155.62 136.792ZM125.412 117.208C125.412 120.365 126.137 122.712 127.588 124.248C129.124 125.784 130.959 126.552 133.092 126.552C134.031 126.552 135.012 126.339 136.036 125.912C137.06 125.485 138.681 124.504 140.9 122.968V102.232C139.791 102.573 138.681 102.957 137.572 103.384C136.548 103.725 135.652 104.067 134.884 104.408C131.983 105.603 129.679 107.309 127.972 109.528C126.265 111.661 125.412 114.221 125.412 117.208Z" fill="#F655A6"/>
<path d="M174.34 135V128.984L181.252 127.448C181.337 124.376 181.38 121.048 181.38 117.464C181.38 113.88 181.38 110.765 181.38 108.12V101.976C181.38 98.4773 181.337 95.576 181.252 93.272C181.252 90.8827 181.167 88.408 180.996 85.848L173.06 84.696V79.704L199.94 71.128L202.116 72.536L201.732 91.096V108.12C201.732 110.765 201.732 113.923 201.732 117.592C201.732 121.176 201.775 124.547 201.86 127.704L208.26 128.984V135H174.34ZM191.364 61.656C188.377 61.656 185.817 60.7173 183.684 58.84C181.551 56.8773 180.484 54.4453 180.484 51.544C180.484 48.5573 181.551 46.1253 183.684 44.248C185.817 42.2853 188.377 41.304 191.364 41.304C194.351 41.304 196.911 42.2853 199.044 44.248C201.177 46.1253 202.244 48.5573 202.244 51.544C202.244 54.4453 201.177 56.8773 199.044 58.84C196.911 60.7173 194.351 61.656 191.364 61.656Z" fill="#F655A6"/>
<path d="M264.12 136.792C256.696 136.792 252.003 133.72 250.04 127.576C247.309 130.477 244.664 132.781 242.104 134.488C239.629 136.109 236.173 136.92 231.736 136.92C226.787 136.92 222.733 135.512 219.576 132.696C216.504 129.88 214.968 125.827 214.968 120.536C214.968 117.464 215.651 114.691 217.016 112.216C218.381 109.741 220.856 107.437 224.44 105.304C228.024 103.171 233.101 101.165 239.672 99.288C240.952 98.8613 242.445 98.4347 244.152 98.008C245.859 97.5813 247.608 97.1547 249.4 96.728V92.504C249.4 86.7867 248.675 82.904 247.224 80.856C245.859 78.808 243.128 77.784 239.032 77.784C238.435 77.784 237.88 77.784 237.368 77.784C236.856 77.784 236.259 77.8267 235.576 77.912L234.936 83.544C234.851 87.7253 233.869 90.7547 231.992 92.632C230.2 94.5093 228.067 95.448 225.592 95.448C220.899 95.448 218.04 93.3147 217.016 89.048C217.357 83.7573 220.045 79.448 225.08 76.12C230.115 72.792 237.24 71.128 246.456 71.128C254.648 71.128 260.493 73.0053 263.992 76.76C267.576 80.5147 269.368 86.7013 269.368 95.32V123.992C269.368 126.467 270.307 127.704 272.184 127.704C272.867 127.704 273.507 127.533 274.104 127.192C274.701 126.765 275.341 125.997 276.024 124.888L279.48 127.192C277.944 130.605 275.939 133.08 273.464 134.616C271.075 136.067 267.96 136.792 264.12 136.792ZM233.912 117.208C233.912 120.365 234.637 122.712 236.088 124.248C237.624 125.784 239.459 126.552 241.592 126.552C242.531 126.552 243.512 126.339 244.536 125.912C245.56 125.485 247.181 124.504 249.4 122.968V102.232C248.291 102.573 247.181 102.957 246.072 103.384C245.048 103.725 244.152 104.067 243.384 104.408C240.483 105.603 238.179 107.309 236.472 109.528C234.765 111.661 233.912 114.221 233.912 117.208Z" fill="black"/>
<path d="M298.741 63.2937C299.619 63.9205 300.672 64.2569 301.751 64.2559C302.83 64.2549 303.882 63.9165 304.759 63.2881C305.636 62.6325 306.303 61.7352 306.677 60.7062L308.629 54.7044C309.098 53.2903 309.89 52.0052 310.942 50.9515C311.995 49.8977 313.28 49.1045 314.693 48.635L320.802 46.6494C321.826 46.2819 322.709 45.6018 323.326 44.7052C323.943 43.8085 324.263 42.7407 324.24 41.6526C324.217 40.5645 323.852 39.5111 323.198 38.6414C322.544 37.7716 321.633 37.1294 320.594 36.8056L314.581 34.8594C313.166 34.3919 311.879 33.6002 310.825 32.5474C309.77 31.4946 308.976 30.2098 308.506 28.7956L306.52 22.6981C306.16 21.6912 305.496 20.8207 304.621 20.2062C303.746 19.5918 302.701 19.2636 301.632 19.2669C300.547 19.2623 299.488 19.5986 298.605 20.2285C297.722 20.8583 297.059 21.7498 296.71 22.7769L294.707 28.9081C294.237 30.2804 293.463 31.5286 292.442 32.5592C291.421 33.5898 290.18 34.3761 288.812 34.8594L282.715 36.8337C281.696 37.1937 280.815 37.8625 280.195 38.7469C279.574 39.6313 279.245 40.6873 279.253 41.7676C279.261 42.848 279.606 43.8989 280.24 44.774C280.873 45.649 281.764 46.3046 282.788 46.6494L288.79 48.6012C290.207 49.0747 291.494 49.8717 292.55 50.9291C293.605 51.9865 294.4 53.2752 294.871 54.6931L296.851 60.7681C297.205 61.7806 297.869 62.6637 298.746 63.2881M327.265 85.9062C328.027 86.4483 328.94 86.7393 329.875 86.7387C330.82 86.7292 331.738 86.4264 332.503 85.8722C333.268 85.3179 333.841 84.5396 334.144 83.645L335.539 79.3587C335.837 78.47 336.344 77.6544 337.002 76.9906C337.66 76.3269 338.476 75.8262 339.364 75.5337L343.707 74.1162C344.605 73.8083 345.383 73.2241 345.929 72.4473C346.475 71.6705 346.761 70.7409 346.747 69.7915C346.732 68.8421 346.418 67.9216 345.849 67.1616C345.28 66.4017 344.485 65.8413 343.578 65.5606L339.28 64.16C338.391 63.8624 337.584 63.3632 336.92 62.7016C336.257 62.04 335.755 61.2339 335.455 60.3462L334.038 55.9925C333.733 55.0984 333.154 54.3229 332.384 53.776C331.613 53.2291 330.69 52.9385 329.746 52.9453C328.801 52.9522 327.883 53.2561 327.12 53.8141C326.358 54.3722 325.791 55.1559 325.499 56.0544L324.109 60.3406C323.823 61.2218 323.337 62.0249 322.689 62.6874C322.041 63.3499 321.249 63.8538 320.374 64.16L316.009 65.5831C315.349 65.8128 314.751 66.1934 314.263 66.6947C313.775 67.1959 313.41 67.8041 313.198 68.4707C312.987 69.1374 312.933 69.8443 313.042 70.5353C313.151 71.2262 313.42 71.8823 313.827 72.4512C314.384 73.2387 315.171 73.8294 316.077 74.1387L320.369 75.5281C321.26 75.8286 322.07 76.332 322.734 76.9987C323.397 77.6654 323.897 78.4772 324.194 79.37L325.617 83.7237C325.925 84.6039 326.499 85.3665 327.259 85.9062" fill="#F655A6"/>
<path d="M6.75 13.5C6.75 6.0075 12.7575 0 20.25 0C27.7425 0 33.75 6.0075 33.75 13.5C33.75 20.9925 27.7425 27 20.25 27C12.7575 27 6.75 20.9925 6.75 13.5ZM54 74.25C53.9651 69.927 52.6691 65.7081 50.271 62.111C47.8729 58.5139 44.4771 55.695 40.5 54C40.5 42.795 31.455 33.75 20.25 33.75C9.045 33.75 0 42.795 0 54V101.25H13.5V135H33.75V101.25H54V74.25Z" fill="black"/>
</svg>
